<svg width="768" height="402" viewBox="0 0 768 402" fill="none" xmlns="http://www.w3.org/2000/svg">
<g clip-path="url(#clip0_109_732)">
<path d="M861.799 44.2984C877.231 50.6686 891.805 58.3128 905.951 67.2311C1000.68 125.837 1060.69 240.075 1043.12 349.218C1025.12 460.059 906.808 617.614 789.786 640.547C751.635 648.191 712.628 637.574 675.335 626.108C612.752 606.997 554.026 575.996 492.3 558.159C468.296 551.365 442.148 549.666 419 559.009C378.707 575.146 368.848 609.97 351.702 645.218C332.412 685.138 299.835 718.688 260.399 739.497C179.383 781.965 74.7917 762.005 -0.222656 716.14C-111.672 648.191 -151.537 514.417 -114.673 392.959C-105.243 361.533 -90.2397 330.532 -65.3779 308.448C-22.9412 270.227 40.9281 263.432 96.653 277.447C135.232 287.214 170.381 305.9 203.816 326.285C231.25 343.272 256.541 366.629 290.404 366.629C358.989 367.054 379.993 279.57 401.854 230.732C430.574 166.181 479.012 109.699 539.023 71.9025C635.899 10.3242 756.351 -0.292799 861.799 44.2984Z" fill="url(#paint0_linear_109_732)"/>
<path d="M861.836 44.5566C877.26 50.9254 891.827 58.5681 905.966 67.4845C1000.65 126.078 1060.64 240.293 1043.07 349.414C1025.08 460.232 906.823 617.756 789.855 640.684C751.723 648.326 712.734 637.712 675.458 626.248C612.904 607.141 554.206 576.146 492.509 558.313C468.515 551.519 442.38 549.821 419.243 559.162C378.969 575.297 369.114 610.113 351.976 645.354C332.696 685.266 300.133 718.809 260.716 739.614C179.738 782.073 75.1953 762.117 0.215942 716.261C-111.182 648.326 -151.028 514.58 -114.181 393.147C-104.755 361.727 -89.7592 330.732 -64.9088 308.653C-22.4919 270.439 41.3475 263.646 97.0464 277.658C135.607 287.423 170.74 306.105 204.16 326.486C231.581 343.469 256.859 366.822 290.707 366.822C359.26 367.246 380.254 279.781 402.105 230.952C430.812 166.414 479.227 109.944 539.21 72.155C636.041 10.5892 756.436 -0.0256062 861.836 44.5566Z" fill="url(#paint1_radial_109_732)"/>
<path d="M-147.68 916.588C-341.431 771.773 -228.267 452.839 -41.8024 355.163C28.0681 318.641 109.512 304.626 187.956 314.819C258.684 324.161 346.986 347.943 419.429 320.764C474.296 299.955 499.587 248.569 528.307 201.854C608.036 71.9025 809.075 47.6958 908.951 170.853C945.815 216.293 960.818 279.57 942.814 335.203C900.378 464.305 758.065 409.097 677.478 478.32C645.329 505.924 636.756 561.132 617.895 598.079C598.606 635.875 575.03 671.973 549.739 706.372C496.586 778.992 431.86 845.242 357.274 896.628C208.531 999.4 22.4956 1029.98 -134.82 925.931C-139.107 922.958 -143.393 919.985 -147.68 916.588Z" fill="url(#paint2_linear_109_732)"/>
<path d="M-147.68 916.588C-341.431 771.773 -228.267 452.839 -41.8024 355.163C28.0681 318.641 109.512 304.626 187.956 314.819C258.684 324.161 346.986 347.943 419.429 320.764C474.296 299.955 499.587 248.569 528.307 201.854C608.036 71.9025 809.075 47.6958 908.951 170.853C945.815 216.293 960.818 279.57 942.814 335.203C900.378 464.305 758.065 409.097 677.478 478.32C645.329 505.924 636.756 561.132 617.895 598.079C598.606 635.875 575.03 671.973 549.739 706.372C496.586 778.992 431.86 845.242 357.274 896.628C208.531 999.4 22.4956 1029.98 -134.82 925.931C-139.107 922.958 -143.393 919.985 -147.68 916.588Z" fill="url(#paint3_radial_109_732)"/>
</g>
<g clip-path="url(#clip1_109_732)">
<path d="M647.271 53.8335C661.314 59.685 674.576 66.7067 687.448 74.8988C773.653 128.732 828.262 233.669 812.269 333.925C795.887 435.74 688.228 580.467 581.74 601.532C547.024 608.554 511.528 598.802 477.593 588.269C420.643 570.715 367.204 542.237 311.034 525.853C289.191 519.612 265.397 518.051 244.333 526.633C207.667 541.457 198.695 573.445 183.093 605.824C165.54 642.493 135.895 673.311 100.008 692.426C26.2859 731.435 -68.8902 713.101 -137.152 670.97C-238.569 608.554 -274.845 485.673 -241.299 374.105C-232.718 345.237 -219.066 316.76 -196.442 296.475C-157.825 261.366 -99.7054 255.125 -48.9968 267.998C-13.8908 276.97 18.0946 294.134 48.5198 312.859C73.484 328.463 96.4979 349.919 127.313 349.919C189.724 350.309 208.837 269.948 228.73 225.087C254.865 165.792 298.942 113.909 353.552 79.1899C441.707 22.6256 551.315 12.8731 647.271 53.8335Z" fill="url(#paint4_linear_109_732)"/>
<path d="M647.304 54.0706C661.34 59.9209 674.596 66.9412 687.462 75.1316C773.626 128.954 828.21 233.87 812.225 334.105C795.85 435.9 688.242 580.597 581.803 601.658C547.104 608.678 511.624 598.928 477.704 588.397C420.781 570.846 367.367 542.375 311.224 525.994C289.39 519.754 265.607 518.194 244.553 526.774C207.904 541.595 198.937 573.577 183.342 605.948C165.797 642.61 136.166 673.422 100.296 692.533C26.6082 731.535 -68.5236 713.204 -136.753 671.082C-238.123 608.678 -274.382 485.822 -240.852 374.277C-232.275 345.415 -218.629 316.944 -196.016 296.663C-157.417 261.561 -99.3244 255.321 -48.6395 268.191C-13.5499 277.162 18.4206 294.323 48.8316 313.044C73.7842 328.644 96.7873 350.095 127.588 350.095C189.97 350.485 209.074 270.141 228.958 225.289C255.08 166.006 299.137 114.134 353.721 79.4218C441.835 22.869 551.392 13.1185 647.304 54.0706Z" fill="url(#paint5_radial_109_732)"/>
<path d="M-271.335 855.097C-447.645 722.073 -344.667 429.109 -174.988 339.386C-111.407 305.837 -37.2947 292.964 34.0874 302.326C98.4483 310.909 178.802 332.754 244.723 307.788C294.652 288.673 317.666 241.471 343.8 198.56C416.352 79.1899 599.293 56.9542 690.179 170.083C723.724 211.824 737.377 269.948 720.994 321.051C682.377 439.641 552.875 388.928 479.543 452.515C450.288 477.871 442.487 528.584 425.324 562.523C407.771 597.241 386.317 630.4 363.303 661.998C314.935 728.705 256.035 789.56 188.164 836.762C52.8105 931.166 -116.478 959.253 -259.633 863.679C-263.533 860.948 -267.434 858.218 -271.335 855.097Z" fill="url(#paint6_linear_109_732)"/>
<path d="M-271.335 855.097C-447.645 722.073 -344.667 429.109 -174.988 339.386C-111.407 305.837 -37.2947 292.964 34.0874 302.326C98.4483 310.909 178.802 332.754 244.723 307.788C294.652 288.673 317.666 241.471 343.8 198.56C416.352 79.1899 599.293 56.9542 690.179 170.083C723.724 211.824 737.377 269.948 720.994 321.051C682.377 439.641 552.875 388.928 479.543 452.515C450.288 477.871 442.487 528.584 425.324 562.523C407.771 597.241 386.317 630.4 363.303 661.998C314.935 728.705 256.035 789.56 188.164 836.762C52.8105 931.166 -116.478 959.253 -259.633 863.679C-263.533 860.948 -267.434 858.218 -271.335 855.097Z" fill="url(#paint7_radial_109_732)"/>
<path d="M194.5 239C177.103 239 163 224.897 163 207.5C163 190.103 177.103 176 194.5 176C211.897 176 226 190.103 226 207.5C226 224.897 211.897 239 194.5 239Z" fill="url(#paint8_linear_109_732)"/>
<path d="M60.5 146C40.3416 146 24 129.658 24 109.5C24 89.3416 40.3416 73 60.5 73C80.6584 73 97 89.3416 97 109.5C97 129.658 80.6584 146 60.5 146Z" fill="url(#paint9_linear_109_732)"/>
</g>
<defs>
<linearGradient id="paint0_linear_109_732" x1="-193.634" y1="777.404" x2="1423.4" y2="-114" gradientUnits="userSpaceOnUse">
<stop stop-color="#FF9370"/>
<stop offset="1" stop-color="#FFDF00"/>
</linearGradient>
<radialGradient id="paint1_radial_109_732" cx="0" cy="0" r="1" gradientUnits="userSpaceOnUse" gradientTransform="translate(464.531 -98.209) rotate(79.6257) scale(1313.6 1235.52)">
<stop stop-color="#FEBB40"/>
<stop offset="0.5576" stop-color="#EC4C76"/>
<stop offset="0.9726" stop-color="#D60B52"/>
</radialGradient>
<linearGradient id="paint2_linear_109_732" x1="927.451" y1="-449.926" x2="-100.497" y2="1209.7" gradientUnits="userSpaceOnUse">
<stop stop-color="#FFDF00"/>
<stop offset="1" stop-color="#FF9370"/>
</linearGradient>
<radialGradient id="paint3_radial_109_732" cx="0" cy="0" r="1" gradientUnits="userSpaceOnUse" gradientTransform="translate(623.512 162.069) rotate(-122.724) scale(1401.84 2365.81)">
<stop stop-color="#FEBB40"/>
<stop offset="0.5576" stop-color="#EC4C76"/>
<stop offset="0.9726" stop-color="#D60B52"/>
</radialGradient>
<linearGradient id="paint4_linear_109_732" x1="-313.152" y1="727.246" x2="1164.73" y2="-79.8282" gradientUnits="userSpaceOnUse">
<stop stop-color="#FF9370"/>
<stop offset="1" stop-color="#FFDF00"/>
</linearGradient>
<radialGradient id="paint5_radial_109_732" cx="0" cy="0" r="1" gradientUnits="userSpaceOnUse" gradientTransform="translate(285.764 -77.0703) rotate(79.7207) scale(1206.28 1124.64)">
<stop stop-color="#FEBB40"/>
<stop offset="0.5576" stop-color="#EC4C76"/>
<stop offset="0.9726" stop-color="#D60B52"/>
</radialGradient>
<linearGradient id="paint6_linear_109_732" x1="707.014" y1="-400.149" x2="-241.163" y2="1116.36" gradientUnits="userSpaceOnUse">
<stop stop-color="#FFDF00"/>
<stop offset="1" stop-color="#FF9370"/>
</linearGradient>
<radialGradient id="paint7_radial_109_732" cx="0" cy="0" r="1" gradientUnits="userSpaceOnUse" gradientTransform="translate(430.435 162.015) rotate(-122.48) scale(1284.19 2158.72)">
<stop stop-color="#FEBB40"/>
<stop offset="0.5576" stop-color="#EC4C76"/>
<stop offset="0.9726" stop-color="#D60B52"/>
</radialGradient>
<linearGradient id="paint8_linear_109_732" x1="120.913" y1="259.344" x2="271.113" y2="153.255" gradientUnits="userSpaceOnUse">
<stop stop-color="#EC4C76"/>
<stop offset="0.5183" stop-color="#FEBB40"/>
<stop offset="1" stop-color="white"/>
</linearGradient>
<linearGradient id="paint9_linear_109_732" x1="-24.7676" y1="169.573" x2="149.273" y2="46.6448" gradientUnits="userSpaceOnUse">
<stop stop-color="#EC4C76"/>
<stop offset="0.703531" stop-color="#FEBB40"/>
<stop offset="1" stop-color="white"/>
</linearGradient>
<clipPath id="clip0_109_732">
<rect width="511" height="393" fill="white" transform="translate(535 17)"/>
</clipPath>
<clipPath id="clip1_109_732">
<rect width="1178" height="538" fill="white" transform="matrix(-1 0 0 1 815 0)"/>
</clipPath>
</defs>
</svg>
