<svg width="18" height="19" viewBox="0 0 18 19" fill="none" xmlns="http://www.w3.org/2000/svg">
<path d="M8.99984 7.7085C7.50407 7.7085 6.2915 8.92106 6.2915 10.4168C6.2915 11.9126 7.50407 13.1252 8.99984 13.1252C10.4956 13.1252 11.7082 11.9126 11.7082 10.4168C11.7082 8.92106 10.4956 7.7085 8.99984 7.7085Z" fill="#F59256"/>
<path fill-rule="evenodd" clip-rule="evenodd" d="M6.70817 0.208496C5.55758 0.208496 4.62484 1.14124 4.62484 2.29183V2.44064C4.62484 2.81869 4.31837 3.12516 3.94031 3.12516C1.78706 3.12516 0.041504 4.87072 0.041504 7.02397V10.8663C0.0414988 12.2024 0.0414947 13.2499 0.12106 14.0867C0.20216 14.9397 0.370312 15.6381 0.747604 16.2538C1.1427 16.8985 1.68479 17.4406 2.32953 17.8357C2.94522 18.213 3.64364 18.3812 4.49659 18.4623C5.3334 18.5418 6.38085 18.5418 7.71698 18.5418H10.2826C11.6188 18.5418 12.6663 18.5418 13.5031 18.4623C14.356 18.3812 15.0545 18.213 15.6701 17.8357C16.3149 17.4406 16.857 16.8985 17.2521 16.2538C17.6294 15.6381 17.7975 14.9397 17.8786 14.0867C17.9582 13.2499 17.9582 12.2025 17.9582 10.8664V7.02397C17.9582 4.87072 16.2126 3.12516 14.0594 3.12516C13.6813 3.12516 13.3748 2.81869 13.3748 2.44064V2.29183C13.3748 1.14124 12.4421 0.208496 11.2915 0.208496H6.70817ZM5.0415 10.4168C5.0415 8.2307 6.81371 6.4585 8.99984 6.4585C11.186 6.4585 12.9582 8.2307 12.9582 10.4168C12.9582 12.603 11.186 14.3752 8.99984 14.3752C6.81371 14.3752 5.0415 12.603 5.0415 10.4168ZM13.9998 7.91683C13.5396 7.91683 13.1665 7.54373 13.1665 7.0835C13.1665 6.62326 13.5396 6.25016 13.9998 6.25016C14.4601 6.25016 14.8332 6.62326 14.8332 7.0835C14.8332 7.54373 14.4601 7.91683 13.9998 7.91683Z" fill="#F59256"/>
</svg>
